# xmcd
#
# Track frame offsets: 
#        150
#        93652
#        124811
#        142683
#        154340
#        178617
#        195524
#        217336
#        236313
#        259083
#
# Disc length: 4080 seconds
#
# Revision: 0
# Processed by: cddbd v1.5.2PL0 Copyright (c) Steve Scherf et al.
# Submitted via: ExactAudioCopy v0.95b4
#
DISCID=8b0fee0a
DTITLE=Live and Kickin' - Savoy Brown
DYEAR=1990
DGENRE=Blues
TTITLE0=Medley (Greatest Hits)
TTITLE1=I Can't Get Next To You
TTITLE2=15 Miles To Go
TTITLE3=Raise Some Thunder
TTITLE4=Since You've Been Gone
TTITLE5=Heartbreaks Make You Strong
TTITLE6=Bad Intentions
TTITLE7=Poor Girl
TTITLE8=Wang Dang Doodle
TTITLE9=All I Can Do Is Cry
EXTD=
EXTT0=
EXTT1=
EXTT2=
EXTT3=
EXTT4=
EXTT5=
EXTT6=
EXTT7=
EXTT8=
EXTT9=
PLAYORDER=
